<svg xmlns="http://www.w3.org/2000/svg" x="0px" y="0px"
width="24" height="24"
viewBox="0 0 172 172"
style=" fill:#000000;"><g transform=""><g fill="none" fill-rule="nonzero" stroke="none" stroke-width="1" stroke-linecap="butt" stroke-linejoin="miter" stroke-miterlimit="10" stroke-dasharray="" stroke-dashoffset="0" font-family="none" font-weight="none" font-size="none" text-anchor="none" style="mix-blend-mode: normal"><path d="M0,172v-172h172v172z" fill="none"></path><g fill="#2e9dff"><path d="M57.33333,21.5c-19.7585,0 -35.83333,16.07483 -35.83333,35.83333v57.33333c0,19.7585 16.07483,35.83333 35.83333,35.83333h57.33333c19.7585,0 35.83333,-16.07483 35.83333,-35.83333v-57.33333c0,-19.7585 -16.07483,-35.83333 -35.83333,-35.83333zM57.33333,35.83333h57.33333c11.85367,0 21.5,9.64633 21.5,21.5v57.33333c0,11.85367 -9.64633,21.5 -21.5,21.5h-57.33333c-11.85367,0 -21.5,-9.64633 -21.5,-21.5v-57.33333c0,-11.85367 9.64633,-21.5 21.5,-21.5zM121.83333,43c-3.95804,0 -7.16667,3.20863 -7.16667,7.16667c0,3.95804 3.20863,7.16667 7.16667,7.16667c3.95804,0 7.16667,-3.20863 7.16667,-7.16667c0,-3.95804 -3.20863,-7.16667 -7.16667,-7.16667zM86,50.16667c-19.7585,0 -35.83333,16.07483 -35.83333,35.83333c0,19.7585 16.07483,35.83333 35.83333,35.83333c19.7585,0 35.83333,-16.07483 35.83333,-35.83333c0,-19.7585 -16.07483,-35.83333 -35.83333,-35.83333zM86,64.5c11.85367,0 21.5,9.64633 21.5,21.5c0,11.85367 -9.64633,21.5 -21.5,21.5c-11.85367,0 -21.5,-9.64633 -21.5,-21.5c0,-11.85367 9.64633,-21.5 21.5,-21.5z"></path></g><path d="" fill="none"></path></g></g></svg>